<svg xmlns="http://www.w3.org/2000/svg" viewBox="0 0 185.38 64.21"><defs><style>.cls-1{fill:#fdb913}.cls-2{fill:#fff}</style></defs><g id="Layer_2" data-name="Layer 2"><g id="Layer_1-2" data-name="Layer 1"><path class="cls-1" d="M90.51 47.92h82.01v.99H90.51z"/><path class="cls-2" d="M92.61 12.39c0-1.67-.12-2.11-1.24-2.2h-.78c-.13-.1-.09-.56 0-.57 1.35-.12 3-.18 5.37-.18a10.59 10.59 0 0 1 4.2.63 3 3 0 0 1 1.9 2.81c0 1.63-1 2.46-2.55 3.09 0 .22.2.29.47.33a3.88 3.88 0 0 1 3.37 3.7c0 2.61-2.15 4.37-6.64 4.37-.73 0-1.95-.07-3-.07s-1.95 0-2.87.07a.41.41 0 0 1 0-.57l.45-.06c1.32-.21 1.37-.45 1.37-2.82Zm2 3c0 .63 0 .67 1.3.63 2.54-.09 3.92-.77 3.92-2.88s-1.83-3-3.72-3a3.34 3.34 0 0 0-1.15.14c-.25.06-.35.18-.35.58Zm0 5.22a4.07 4.07 0 0 0 .52 2.45 2.6 2.6 0 0 0 2 .63c2.22 0 3.92-.9 3.92-3.15 0-1.78-1-3.85-5-3.85-1.35 0-1.45.14-1.45.59ZM120.7 14.6c0-2 0-2.36-1.3-2.46h-.53c-.13-.07-.09-.42 0-.48 1.07 0 1.79.06 2.69.06s1.58 0 2.64-.06c.13.06.18.41.05.48h-.54c-1.25.1-1.3.42-1.3 2.46v6.84c0 2 0 2.31 1.3 2.44l.54.06c.13.08.08.42-.05.48-1.06 0-1.79-.06-2.64-.06s-1.62 0-2.69.06a.34.34 0 0 1 0-.48l.53-.06c1.26-.13 1.3-.4 1.3-2.44ZM132.54 21.48c0 2 0 2.31 1.2 2.4l.64.06a.38.38 0 0 1 0 .48c-1.14 0-1.82-.06-2.62-.06s-1.5 0-2.78.06a.33.33 0 0 1 0-.48l.72-.06c1.14-.09 1.24-.38 1.24-2.4v-8.59c0-.6 0-.61-.6-.61h-1.1a4.25 4.25 0 0 0-2.46.47 3.57 3.57 0 0 0-.9 1.33.39.39 0 0 1-.52-.13 19.8 19.8 0 0 0 .76-2.87.55.55 0 0 1 .38 0c.12.62.78.6 1.7.6h8.09c1.08 0 1.26 0 1.56-.54.1 0 .32 0 .36.06a11.18 11.18 0 0 0-.3 2.92c-.08.15-.42.15-.52 0a2.43 2.43 0 0 0-.5-1.41 4.17 4.17 0 0 0-2.31-.47h-1.42c-.6 0-.58 0-.58.65ZM141.1 14.6c0-2 0-2.36-1.3-2.46h-.53c-.13-.07-.09-.42 0-.48 1.07 0 1.79.06 2.69.06s1.58 0 2.64-.06c.13.06.17.41.05.48h-.54c-1.26.1-1.3.42-1.3 2.46v6.84c0 2 0 2.31 1.3 2.44l.54.06c.12.08.08.42-.05.48-1.06 0-1.79-.06-2.64-.06s-1.62 0-2.69.06a.34.34 0 0 1 0-.48l.53-.06c1.26-.13 1.3-.4 1.3-2.44ZM150.66 24.62a8.15 8.15 0 0 1-3.54-.71 7.93 7.93 0 0 1-.61-2.69c.11-.14.45-.18.54-.06A4 4 0 0 0 151 24c1.9 0 2.83-1.06 2.83-2.21 0-.84-.2-1.79-1.86-2.69l-2.15-1.19c-1.14-.64-2.45-1.73-2.45-3.31 0-1.82 1.67-3.3 4.62-3.3a9.84 9.84 0 0 1 2.11.25 3.35 3.35 0 0 0 .8.11 7.43 7.43 0 0 1 .4 2.35.52.52 0 0 1-.56.06 2.85 2.85 0 0 0-3.09-2.17c-2.22 0-2.7 1.24-2.7 2.13 0 1.11 1.09 1.92 1.93 2.36l1.82 1c1.42.75 2.83 1.87 2.83 3.69-.04 2.1-1.92 3.54-4.87 3.54ZM162.07 18.15c-1 0-1 0-1 .62v2.71c0 2 .1 2.29 1.26 2.4l.6.06c.13.08.08.42 0 .48-1.12 0-1.82-.06-2.63-.06s-1.59 0-2.39.06a.35.35 0 0 1-.05-.48l.35-.06c1.16-.19 1.2-.38 1.2-2.4v-6.92c0-2-.14-2.34-1.22-2.42h-.53c-.13-.07-.09-.42 0-.48 1 0 1.71.06 2.6.06s1.51 0 2.4-.06c.13.06.17.41 0 .48h-.39c-1.2.12-1.24.4-1.24 2.42v2.21c0 .6 0 .62 1 .62H168c1 0 1 0 1-.62v-2.21c0-2 0-2.3-1.26-2.42h-.39c-.13-.07-.08-.42 0-.48 1 0 1.65.06 2.5.06s1.51 0 2.44-.06c.13.06.17.41 0 .48h-.43c-1.2.12-1.24.4-1.24 2.42v6.92c0 2 0 2.27 1.24 2.4l.49.06c.13.08.09.42 0 .48-1 0-1.69-.06-2.5-.06s-1.59 0-2.5.06a.35.35 0 0 1 0-.48l.39-.06c1.26-.19 1.26-.38 1.26-2.4v-2.71c0-.58 0-.62-1-.62ZM80.78 28.64a10.06 10.06 0 0 1 6.28-2 17.51 17.51 0 0 1 4.12.56 1.85 1.85 0 0 0 .66.09c0 .53.14 2 .32 3.41a.49.49 0 0 1-.63.05c-.35-1.58-1.39-3.39-4.77-3.39-3.56 0-6.59 2.25-6.59 7S83.27 42 87.09 42A5 5 0 0 0 92 38.69a.5.5 0 0 1 .61.09A8.79 8.79 0 0 1 91.44 42a5.07 5.07 0 0 0-.81.23 13.69 13.69 0 0 1-3.68.53 10.2 10.2 0 0 1-5.8-1.55 7.49 7.49 0 0 1-3.31-6.38 7.71 7.71 0 0 1 2.94-6.19ZM93.51 36.15c0-3.85 3-6.79 7.18-6.79 4.66 0 7 3.21 7 6.59a6.72 6.72 0 0 1-7 6.71c-4.48 0-7.18-3.05-7.18-6.51Zm12.17.4c0-3.17-1.48-6.59-5.33-6.59-2.1 0-4.82 1.36-4.82 5.57 0 2.84 1.45 6.54 5.42 6.54 2.43 0 4.73-1.73 4.73-5.52ZM130.46 34.49c0-1.19 0-3.4-.39-4a1.3 1.3 0 0 0-1-.41h-.51a.34.34 0 0 1 0-.46c.78 0 1.53.06 2.32.06s1.41 0 2.14-.06a.31.31 0 0 1 0 .46h-.49a1.21 1.21 0 0 0-1 .46 16 16 0 0 0-.29 3.92v2.18a6.42 6.42 0 0 1-1.42 4.59 5.58 5.58 0 0 1-3.89 1.4 6 6 0 0 1-3.81-1.06c-1.08-.84-1.59-2.24-1.59-4.53v-4.51c0-2 0-2.32-1.22-2.42h-.51c-.13-.07-.09-.4 0-.46 1 0 1.71.06 2.52.06s1.51 0 2.51-.06c.12.06.16.39 0 .46h-.49c-1.18.1-1.22.43-1.22 2.42v4.15c0 3.1 1 5.14 4.13 5.14 3 0 4.08-2.2 4.08-5.12ZM154.13 32.09c0-1.43-.09-1.8-1.1-1.88l-.72-.07c-.08-.07-.13-.46 0-.47 1.22-.09 2.75-.16 4.84-.16a9.9 9.9 0 0 1 3.78.54 2.55 2.55 0 0 1 1.71 2.43c0 1.4-.94 2.12-2.29 2.66 0 .2.18.25.43.29a3.4 3.4 0 0 1 3 3.24c0 2.25-1.93 3.77-6 3.77-.65 0-1.75-.06-2.7-.06s-1.75 0-2.59.06a.34.34 0 0 1 0-.49l.4-.05c1.2-.18 1.24-.39 1.24-2.43Zm1.87 2.58c0 .55 0 .59 1.17.55 2.29-.08 3.53-.66 3.53-2.49s-1.64-2.62-3.35-2.62a3.13 3.13 0 0 0-1 .12c-.22.06-.31.16-.31.5Zm0 4.51a3.32 3.32 0 0 0 .47 2.11 2.39 2.39 0 0 0 1.78.55c2 0 3.53-.78 3.53-2.72 0-1.53-.9-3.32-4.48-3.32-1.21 0-1.3.12-1.3.5ZM117.44 23.94l-.53-.05h-.29c-.78-.13-1.1-.83-1.46-1.47l-1.85-3.22c-.32-.53-.66-1.25-1.39-1.36 1.89-.22 3.6-1.31 3.6-3.19 0-2.16-2.14-3.13-4.3-3.13h-6.13c-.4 0-.41.09-.41.31s.14.24.57.27c1.54.08 1.48.37 1.48 1.69v8.42c0 1.21.1 1.56-1.16 1.68h-.3l-.54.05a.35.35 0 0 0 0 .49h.79c.7 0 1.4-.07 2.1-.07s1.38.05 2.07.07h.79a.34.34 0 0 0 0-.48l-.54-.05h-.3c-1.28-.08-1.2-.44-1.2-1.68V19c0-.19 0-.68.11-.82s.32-.11.5-.11c1.73 0 1.71.17 2.53 1.61l2.23 4c.18.31.32.7.78.7H117.31a.34.34 0 0 0 .13-.44Zm-7.77-6.32c-.39 0-1.16.15-1.16-.36v-3.69c0-1.44 0-1.65 1.77-1.65 2 0 3.28 1 3.28 2.92a2.43 2.43 0 0 1-1 2.11 4.76 4.76 0 0 1-2.89.67ZM110.09 32.6c0-2 0-2.33-1.38-2.42h-.52c-.13-.08-.09-.42 0-.48 1.18 0 1.9.06 2.75.06s1.54 0 2.6-.06c.12.06.16.4 0 .48h-.51c-1.25.09-1.29.4-1.29 2.42v6.69c0 1.21.06 1.71.44 2.07s.64.44 2.31.44 2.24-.07 2.58-.25a4.11 4.11 0 0 0 1.39-1.9c.13-.1.53 0 .53.12a14.16 14.16 0 0 1-.89 2.69c-1.07 0-3.08-.06-5.26-.06H111c-.89 0-1.57 0-2.75.06a.34.34 0 0 1 0-.48l.63-.06c1.23-.12 1.27-.39 1.27-2.4ZM166.71 32.64c0-2 0-2.37-1.26-2.46h-.52c-.13-.08-.08-.42 0-.48 1 0 1.74.06 2.61.06s1.54 0 2.58-.06c.12.06.16.4 0 .48h-.52c-1.22.09-1.27.42-1.27 2.46v6.84c0 2 .05 2.3 1.27 2.44l.52.06c.12.07.08.42 0 .48-1 0-1.75-.06-2.58-.06s-1.57 0-2.61.06a.35.35 0 0 1 0-.48l.52-.06c1.22-.14 1.26-.4 1.26-2.44ZM150.13 41.91h-.31a.86.86 0 0 1-.57-.23c-.27-.28-.24-1.1-.24-1.42v-8.44c0-.37-.09-1.17.18-1.45a1 1 0 0 1 .66-.19H150.67c.13-.08.09-.42 0-.48h-3.06c-.24 0-.47 0-.6.26l-4.62 9.62-4.09-9.29c-.13-.33-.15-.59-.58-.59h-3.16c-.13.06-.17.4 0 .48H135.4c.88.06.94.26.86 1.19l-.7 9c-.06.91-.11 1.39-1.06 1.47h-.31l-.53.06a.34.34 0 0 0 0 .48h.78c.48 0 1-.06 1.47-.06s1 0 1.58.07h.79a.35.35 0 0 0 0-.48l-.54-.06h-.29c-1.37-.09-1.34-1.06-1.26-2.24l.65-8.4h.16l4.42 10.33c0 .15.11.39.33.39s.27-.22.34-.37l5-10.6h.15v9.24c0 .36.05 1.12-.33 1.4a2.79 2.79 0 0 1-.85.24h-.29l-.53.06a.34.34 0 0 0 0 .48h.78c.72 0 1.46-.07 2.19-.07h2.38c.13-.05.17-.36 0-.48ZM184.78 42l-.07-.06h-.29c-.83-.19-1.15-1.19-1.46-1.9l-4.27-10.12c-.05-.12-.13-.38-.3-.38s-.3.28-.36.44L173.94 40a7 7 0 0 1-.8 1.59 1.16 1.16 0 0 1-.78.29H171.52a.34.34 0 0 0 0 .48h.79c.56 0 1.12-.08 1.68-.08s.94 0 1.41.07h.79a.34.34 0 0 0 0-.48l-.53-.06h-.29c-.49-.05-1.1-.14-1.1-.68a3.5 3.5 0 0 1 .29-1.11l.64-1.51c.31-.73.19-.81 1-.81h2.88c1 0 .87 0 1.32 1l.67 1.53a3.32 3.32 0 0 1 .3 1c0 .51-.55.54-1.07.59H179.47a.34.34 0 0 0 0 .48h.79c.6 0 1.21-.07 1.79-.07.74 0 1.48 0 2.22.07h.32a.34.34 0 0 0 .19-.3Zm-5.6-4.76h-2.49c-.09 0-.78.08-.78-.12a1.14 1.14 0 0 1 .06-.25l1.5-3.71c0-.1.2-.61.37-.61s.3.53.34.61l1.48 3.47s.15.37.15.45-.5.13-.63.13ZM71.68 27.57A36.79 36.79 0 0 0 36.46 0 36.48 36.48 0 0 0 .88 28.58 35.25 35.25 0 0 0 0 36.46 33.58 33.58 0 0 0 .66 43l.82-.17a47.91 47.91 0 0 1 13-.68c7.1.9 11.54 2.09 19 3.79s13 3.29 21.1 2.39c7.08-.79 11.93-1.89 16.65-5l.38-.25.51-.37a36.74 36.74 0 0 0 .6-6.16 40.11 40.11 0 0 0-1.08-9"/><path d="M.86 28.67A36.62 36.62 0 0 0 0 36.46 33.58 33.58 0 0 0 .66 43l.82-.17a47.91 47.91 0 0 1 13-.68c7.1.9 11.54 2.09 19 3.79s13 3.29 21.1 2.39c7.09-.79 11.93-1.89 16.65-5l.37-.25c.09 0 .41-.29.51-.37a35.73 35.73 0 0 0 .61-6.16 39.6 39.6 0 0 0-1-8.61l-5-2.79L61 29.2l-3.9-1.52c-1.32.67-9.46 6.11-9.46 6.11l-3.13-2.26-3.35-.66-4.47-3.26-5.13 3.52s-5.72 3.33-5.92 3.33-6.91-5.32-6.91-5.32l-3.13-3.26c-.52.34-2.62 1.3-2.62 1.3h-.11l-2-.63-2.5-1.28Z" style="fill:#606c9c"/><path class="cls-1" d="m65.97 25.06-7.36 2.73 2.32.79 5.04-3.52z"/><path class="cls-1" d="m7.26 25.16-4.13-1.53c.05-.12.1-.25.14-.38l4.55 1.59.43-.27 2.17 1.18 2.7 1 .16-.07-9.62-4.35c0-.13.11-.26.16-.38l10.61 4.23.15-.07L4.24 21l.18-.36 11.22 4.9-10.76-5.78c0-.11.11-.22.17-.33l15.13 8a12.55 12.55 0 0 1 .69-1.18L8.55 16.63l13.15 8.44a15.27 15.27 0 0 1 1-1.24L10.07 12.36l.28-.3 9.19 8.12L11 11.34l.29-.29 9.59 9.2-8.86-9.9.29-.28 8.59 8.76-7.79-9.43.29-.25 11 13.05q.63-.56 1.32-1.05L17.87 7.58l9.05 12.77c.49-.29 1-.56 1.52-.81L21 4.22l.41-.22 5.49 11-4.58-11.37.39-.16 5.45 12.14-4.52-12.52L24 3l4.71 11.3L25 2.61l.33-.11 5.28 16.16c.49-.16 1-.31 1.5-.43l-2.2-15.52L33.52 18a15.58 15.58 0 0 1 1.82-.2L34.21.82h.39L35.77 13 35.59.76H36l.5 12.81L37 .76h.41L37.31 13 38.43.82h.38l-1.15 16.94a16.64 16.64 0 0 1 1.73.19L43 2.76l-2.19 15.47c.54.13 1.06.29 1.57.46L47.65 2.6l.37.13-3.69 11.57L49 3.07l.38.14-4.47 12.4 5.39-12 .39.17L46.14 15l5.42-10.82.34.16-7.37 15.23c.51.25 1 .51 1.47.8l9-12.74-7.79 13.54a15.46 15.46 0 0 1 1.35 1.07l10.9-12.93.29.26L52 18.91l8.49-8.67.3.28L52 20.33l9.48-9.11.3.3-8.4 8.74 9.08-8c.08.09.17.18.25.28l-12.5 11.33a15.12 15.12 0 0 1 1 1.23l13.12-8.42-12.3 9.61c.25.38.48.78.69 1.18l14.95-7.91.18.35-10.56 5.71 11-4.81.18.37-11.69 5.76 12.13-4.86c0 .13.11.26.17.39l-11 4.93 11.36-4c0 .12.09.24.14.35l-2.43.9 3.61 2.74 1 .56a41.72 41.72 0 0 0-1.53-4.83A36.83 36.83 0 0 0 36.34 0 36.29 36.29 0 0 0 .9 28.48a1 1 0 0 0 0 .2l.71-.33Z"/><path class="cls-2" d="M2.08 61.76a3.08 3.08 0 0 1-1.58-.38A4.69 4.69 0 0 1 .23 60c.05-.07.2-.1.24 0a1.85 1.85 0 0 0 1.75 1.51 1.15 1.15 0 0 0 1.26-1.17 1.52 1.52 0 0 0-.83-1.42l-1-.63a2.15 2.15 0 0 1-1.1-1.74c0-1 .75-1.74 2.07-1.74a3.88 3.88 0 0 1 .94.13 1.48 1.48 0 0 0 .36.06 4.47 4.47 0 0 1 .18 1.24c0 .06-.2.09-.25 0a1.33 1.33 0 0 0-1.38-1.15 1.07 1.07 0 0 0-1.17 1.1 1.6 1.6 0 0 0 .86 1.24l.82.51a2.28 2.28 0 0 1 1.26 1.94 1.91 1.91 0 0 1-2.16 1.88ZM6.15 60.11c0 .7.17 1.16.94 1.16a1.31 1.31 0 0 0 .82-.3.71.71 0 0 0 .21-.59v-1.66c0-.66-.08-.68-.38-.8l-.13-.05a.14.14 0 0 1 0-.22 4.4 4.4 0 0 0 1.18-.19c.06 0 .09 0 .1.07v2.59c0 .8 0 1.1.31 1.1a1.89 1.89 0 0 0 .39 0c.07 0 .08.26 0 .3a5.27 5.27 0 0 0-1.32.37.14.14 0 0 1-.12-.07v-.42c0-.09 0-.14-.1-.14a2.57 2.57 0 0 1-1.39.53c-.9 0-1.23-.45-1.23-1.27v-1.74c0-.64 0-.73-.3-.86L5 57.87a.15.15 0 0 1 0-.22 3.92 3.92 0 0 0 1.09-.19c.06 0 .09 0 .1.07a8 8 0 0 0 0 .89ZM10.6 58.69c0-.4 0-.45-.27-.63l-.1-.06a.14.14 0 0 1 0-.18 6.28 6.28 0 0 0 1-.55.11.11 0 0 1 .12.07 4.7 4.7 0 0 0 0 .47c0 .07 0 .13.09.13a3.21 3.21 0 0 1 1.42-.48 1.72 1.72 0 0 1 1.68 1.86 2.36 2.36 0 0 1-2.47 2.42 3.94 3.94 0 0 1-.56 0c-.09 0-.14.07-.14.28v1.07c0 .72 0 .81.38.86l.4.05a.17.17 0 0 1 0 .25H10.01A.17.17 0 0 1 10 64h.21c.38 0 .39-.15.39-.88Zm.75 1.88a.65.65 0 0 0 .3.61 1.39 1.39 0 0 0 .73.23c.83 0 1.32-.77 1.32-1.83A1.46 1.46 0 0 0 12.33 58a1.26 1.26 0 0 0-.86.28.92.92 0 0 0-.12.6ZM15.75 58.69c0-.4 0-.45-.27-.63l-.1-.06a.14.14 0 0 1 0-.18 6.28 6.28 0 0 0 1-.55.11.11 0 0 1 .12.07 4.7 4.7 0 0 0 0 .47c0 .07 0 .13.09.13a3.21 3.21 0 0 1 1.41-.48 1.72 1.72 0 0 1 1.68 1.86 2.36 2.36 0 0 1-2.47 2.42 3.94 3.94 0 0 1-.56 0c-.09 0-.14.07-.14.28v1.07c0 .72 0 .81.38.86l.4.05a.17.17 0 0 1 0 .25H15.15a.17.17 0 0 1 0-.25h.21c.38 0 .39-.15.39-.88Zm.75 1.88a.65.65 0 0 0 .3.61 1.39 1.39 0 0 0 .73.23c.83 0 1.32-.77 1.32-1.83A1.47 1.47 0 0 0 17.48 58a1.26 1.26 0 0 0-.86.28.92.92 0 0 0-.12.6ZM24.61 59.56a2.07 2.07 0 0 1-2.14 2.18 2 2 0 0 1-2.08-2.09 2.13 2.13 0 0 1 2.16-2.19 2 2 0 0 1 2.06 2.1Zm-2.18-1.79c-.67 0-1.17.64-1.17 1.75 0 .92.42 1.92 1.31 1.92s1.17-.94 1.17-1.72-.35-1.95-1.31-1.95ZM26 58.69c0-.4 0-.45-.28-.63L25.6 58a.14.14 0 0 1 0-.18 8.06 8.06 0 0 0 1-.5c.05 0 .08 0 .08.07v.7a2.07 2.07 0 0 1 1.11-.61.42.42 0 0 1 .46.41.45.45 0 0 1-.44.46.38.38 0 0 1-.22-.07.82.82 0 0 0-.45-.16.44.44 0 0 0-.36.2 1.59 1.59 0 0 0-.13.78v1.38c0 .73 0 .85.4.88h.37a.19.19 0 0 1 0 .26h-2.06a.19.19 0 0 1 0-.26h.19c.38-.06.39-.15.39-.88ZM30.26 58c-.18 0-.19 0-.19.24v1.9c0 .59.07 1.12.74 1.12a.82.82 0 0 0 .28 0c.09 0 .22-.14.25-.14s.12.11.1.17a1.38 1.38 0 0 1-1.06.47c-.87 0-1.06-.49-1.06-1.09v-2.35c0-.27 0-.29-.21-.29h-.28a.17.17 0 0 1 0-.21 2.16 2.16 0 0 0 .65-.32 2.48 2.48 0 0 0 .42-.59.16.16 0 0 1 .21.05v.45c0 .18 0 .19.19.19h1.12a.33.33 0 0 1 0 .43ZM32.87 59c-.26 0-.27 0-.27.28a1.71 1.71 0 0 0 1.68 1.89 1.09 1.09 0 0 0 .93-.49.14.14 0 0 1 .19.12 1.78 1.78 0 0 1-1.6.94 1.83 1.83 0 0 1-1.47-.67 2.16 2.16 0 0 1-.42-1.32 2.13 2.13 0 0 1 2-2.29 1.33 1.33 0 0 1 1.44 1.21.57.57 0 0 1 0 .26c0 .06-.17.07-.59.07Zm.63-.3c.75 0 1 0 1-.1s.06-.06.06-.19c0-.29-.19-.64-.78-.64a1.18 1.18 0 0 0-1.12.88s0 .05.07.05ZM39.88 60.12c0 .8 0 1.17.29 1.17a1.79 1.79 0 0 0 .44-.1c.07 0 .08.28 0 .33a7.55 7.55 0 0 0-1.34.32c-.06 0-.11 0-.11-.08v-.17a1.2 1.2 0 0 0 0-.32 2.11 2.11 0 0 1-1.28.47 1.86 1.86 0 0 1-1.88-2 2.3 2.3 0 0 1 2.46-2.33 2.18 2.18 0 0 1 .68.09s.06-.06.06-.14v-1.48c0-.6 0-.66-.32-.84l-.1-.06a.15.15 0 0 1 0-.2 7.85 7.85 0 0 0 1.1-.43.11.11 0 0 1 .1.06v1.26Zm-.75-1.52a.56.56 0 0 0-.12-.4 1 1 0 0 0-.85-.42 1.49 1.49 0 0 0-1.4 1.68 1.61 1.61 0 0 0 1.51 1.79 1.28 1.28 0 0 0 .79-.28.62.62 0 0 0 .07-.38ZM44.05 55.88c0-.6 0-.66-.31-.84l-.1-.06a.15.15 0 0 1 0-.2 9.6 9.6 0 0 0 1.1-.43.11.11 0 0 1 .1.06v3.17c0 .18 0 .22.1.22a2.39 2.39 0 0 1 1.17-.34 1.9 1.9 0 0 1 1.94 2 2.22 2.22 0 0 1-2.33 2.29 3 3 0 0 1-.87-.13 2.13 2.13 0 0 0-.42-.13c-.08 0-.16.08-.21.15a.11.11 0 0 1-.1-.06v-.86Zm.75 4.34a1.36 1.36 0 0 0 .26.88 1 1 0 0 0 .77.34c1 0 1.32-.82 1.32-1.69 0-1-.53-1.85-1.54-1.85a1.31 1.31 0 0 0-.68.16c-.11.07-.13.18-.13.58ZM48.55 63.69a.38.38 0 0 1 .41-.41h.19a.38.38 0 0 0 .34-.18 7.42 7.42 0 0 0 .59-1.1 1.51 1.51 0 0 0 .1-.43 1.77 1.77 0 0 0-.18-.7l-.79-2.17c-.17-.48-.24-.72-.59-.79l-.26-.05c-.06 0 0-.23 0-.26h1.88c.08 0 .09.21 0 .26l-.26.05c-.14 0-.22.06-.22.13a6.39 6.39 0 0 0 .3 1l.32.94a5.6 5.6 0 0 0 .29.71 4.31 4.31 0 0 0 .38-.75l.34-.8a4.36 4.36 0 0 0 .36-1c0-.07-.06-.14-.25-.17l-.31-.05c-.07 0-.06-.23 0-.26H52.85a.18.18 0 0 1 0 .26h-.17c-.33.06-.52.35-.86 1.07l-.57 1.17c-.33.68-1.16 2.44-1.66 3.55a.68.68 0 0 1-.65.47.41.41 0 0 1-.39-.49ZM57.13 58c-.17 0-.18 0-.18.24v1.9c0 .59.07 1.12.74 1.12a.76.76 0 0 0 .27 0c.09 0 .23-.14.26-.14s.12.11.1.17a1.4 1.4 0 0 1-1.07.47c-.87 0-1-.49-1-1.09v-2.35c0-.27 0-.29-.21-.29h-.34a.17.17 0 0 1 0-.21 1.93 1.93 0 0 0 .65-.32 2.81 2.81 0 0 0 .43-.59.16.16 0 0 1 .22.09v.45c0 .18 0 .19.18.19h1.13a.33.33 0 0 1 0 .43ZM59.32 55.88c0-.6 0-.66-.31-.84l-.1-.06a.13.13 0 0 1 0-.2 7.34 7.34 0 0 0 1.09-.43.11.11 0 0 1 .1.06V57.99a2.34 2.34 0 0 1 1.37-.53 1.19 1.19 0 0 1 1.31 1.31v1.69c0 .73 0 .84.38.88h.28a.19.19 0 0 1 0 .26H61.5a.19.19 0 0 1 0-.26h.2c.38-.06.39-.15.39-.88V59c0-.65-.32-1.08-1-1.08a1.25 1.25 0 0 0-.79.27c-.18.15-.21.21-.21.56v1.7c0 .73 0 .83.39.88h.21a.19.19 0 0 1 0 .26h-1.95a.19.19 0 0 1 0-.26H59c.37 0 .38-.15.38-.88ZM65 59c-.27 0-.28 0-.28.28a1.72 1.72 0 0 0 1.69 1.89 1.1 1.1 0 0 0 .93-.49.13.13 0 0 1 .18.12 1.76 1.76 0 0 1-1.59.94 1.8 1.8 0 0 1-1.47-.67 2.17 2.17 0 0 1-.46-1.32 2.14 2.14 0 0 1 2-2.29 1.33 1.33 0 0 1 1.44 1.21.62.62 0 0 1 0 .26c0 .06-.17.07-.6.07Zm.63-.3c.75 0 1 0 1-.1s.06-.06.06-.19c0-.29-.19-.64-.78-.64a1.17 1.17 0 0 0-1.12.88s0 .05.07.05ZM72.36 60.08c0 1.06 0 1.19.67 1.26h.27a.21.21 0 0 1 0 .26H70.77c-.07 0-.09-.19 0-.26h.21c.59-.08.61-.2.61-1.26v-3.74c0-.86 0-1-.48-1.09h-.36a.15.15 0 0 1 0-.25 16 16 0 0 1 2-.08 3.73 3.73 0 0 1 2 .4 1.77 1.77 0 0 1 .81 1.52 1.74 1.74 0 0 1-1 1.62 3.5 3.5 0 0 1-1.4.3c-.07 0-.07-.18 0-.2a1.59 1.59 0 0 0 1.49-1.71 1.5 1.5 0 0 0-1.64-1.62c-.53 0-.54 0-.54.37ZM76.49 58.69c0-.4 0-.45-.27-.63l-.09-.06a.14.14 0 0 1 0-.18 8 8 0 0 0 1-.5s.08 0 .08.07v.7a2.09 2.09 0 0 1 1.12-.61.42.42 0 0 1 .46.41.45.45 0 0 1-.44.46.38.38 0 0 1-.22-.07.88.88 0 0 0-.45-.16.44.44 0 0 0-.36.2 1.47 1.47 0 0 0-.14.78v1.38c0 .73 0 .85.41.88h.36a.18.18 0 0 1 0 .26H75.9a.19.19 0 0 1 0-.26h.19c.37-.06.38-.15.38-.88ZM83.39 59.56a2.07 2.07 0 0 1-2.14 2.18 2 2 0 0 1-2.08-2.09 2.13 2.13 0 0 1 2.16-2.19 2 2 0 0 1 2.06 2.1Zm-2.18-1.79c-.67 0-1.17.64-1.17 1.75 0 .92.42 1.92 1.31 1.92s1.16-.94 1.16-1.72-.34-1.95-1.3-1.95ZM84.42 58.61c-.15-.38-.24-.7-.61-.75h-.2c-.06-.08 0-.23 0-.26H85.43a.17.17 0 0 1 0 .26h-.12c-.31 0-.32.1-.22.4.23.7.53 1.41.76 1.94a1.65 1.65 0 0 0 .16.32 1.4 1.4 0 0 0 .2-.38c.13-.35.47-1.23.57-1.49A2.63 2.63 0 0 0 87 58c0-.09-.07-.13-.19-.15h-.23a.2.2 0 0 1 0-.26h1.47a.2.2 0 0 1 0 .26h-.15c-.36 0-.45.31-.74.88-.14.27-.77 1.74-.93 2.16-.11.25-.21.48-.34.83a.12.12 0 0 1-.1 0 .18.18 0 0 1-.13 0c-.08-.28-.24-.68-.39-1ZM89 58.69c0-.4 0-.45-.27-.63l-.12-.06a.14.14 0 0 1 0-.18 7 7 0 0 0 1-.5.09.09 0 0 1 .1.06v3.08c0 .73 0 .83.39.88h.21a.19.19 0 0 1 0 .26h-1.95a.17.17 0 0 1 0-.26h.21c.37-.05.38-.15.38-.88Zm.84-2.89a.49.49 0 0 1-.53.53.5.5 0 0 1-.52-.51.53.53 0 0 1 .55-.55.51.51 0 0 1 .47.53ZM91.59 58.69c0-.4 0-.45-.28-.63l-.09-.06a.14.14 0 0 1 0-.18 5.67 5.67 0 0 0 1-.5.12.12 0 0 1 .11.07v.48a.1.1 0 0 0 .11.11 2.82 2.82 0 0 1 1.42-.52 1.12 1.12 0 0 1 1.18 1.26v1.74c0 .73 0 .83.39.88h.22a.19.19 0 0 1 0 .26h-1.94a.19.19 0 0 1 0-.26h.19c.37-.06.38-.15.38-.88V59a.87.87 0 0 0-1-1 1.11 1.11 0 0 0-.86.35.88.88 0 0 0-.15.61v1.55c0 .73 0 .82.38.88h.19a.19.19 0 0 1 0 .26h-1.88a.19.19 0 0 1 0-.26h.21c.38-.05.39-.15.39-.88ZM99.65 57.63a.61.61 0 0 1 .15.41c0 .18-.1.38-.22.38a.19.19 0 0 1-.15-.08 1.37 1.37 0 0 0-1-.53A1.46 1.46 0 0 0 97 59.44a1.66 1.66 0 0 0 1.63 1.73 1.23 1.23 0 0 0 1.13-.61.16.16 0 0 1 .18.15 1.83 1.83 0 0 1-1.69 1 2 2 0 0 1-1.39-.52 2 2 0 0 1-.59-1.5 2.26 2.26 0 0 1 2.46-2.26 2.59 2.59 0 0 1 .92.2ZM101.31 59c-.26 0-.27 0-.27.28a1.71 1.71 0 0 0 1.68 1.89 1.09 1.09 0 0 0 .93-.49.13.13 0 0 1 .18.12 1.76 1.76 0 0 1-1.59.94 1.81 1.81 0 0 1-1.47-.67 2.16 2.16 0 0 1-.42-1.32 2.13 2.13 0 0 1 2-2.29 1.32 1.32 0 0 1 1.43 1.21.62.62 0 0 1 0 .26c0 .06-.17.07-.59.07Zm.63-.3c.75 0 1 0 1-.1s.06-.06.06-.19c0-.29-.19-.64-.78-.64a1.18 1.18 0 0 0-1.12.88s0 .05.07.05ZM111.13 59.56a2.07 2.07 0 0 1-2.13 2.18 2 2 0 0 1-2.07-2.09 2.13 2.13 0 0 1 2.16-2.19 2 2 0 0 1 2.04 2.1ZM109 57.77c-.66 0-1.16.64-1.16 1.75 0 .92.41 1.92 1.31 1.92s1.16-.94 1.16-1.72-.39-1.95-1.31-1.95ZM113.38 58c-.17 0-.17 0-.17.29v2.14c0 .73 0 .85.39.88h.36a.19.19 0 0 1 0 .26h-2.1a.19.19 0 0 1 0-.26h.24c.37-.05.38-.15.38-.88v-2.11c0-.27 0-.29-.2-.29h-.36a.14.14 0 0 1 0-.19l.44-.22a.23.23 0 0 0 .15-.2 4.41 4.41 0 0 1 .32-1.78 2 2 0 0 1 1.82-1.29c.54 0 1 .24 1 .61a.38.38 0 0 1-.38.36.29.29 0 0 1-.24-.12 1.16 1.16 0 0 0-.82-.44.77.77 0 0 0-.71.55 5.22 5.22 0 0 0-.23 1.72v.29c0 .27 0 .28.17.28h1.16a.32.32 0 0 1-.07.43ZM118.29 56.23c0-.75 0-.95-.5-1h-.32a.16.16 0 0 1 0-.25c.55-.05 1.24-.08 2.18-.08a3.87 3.87 0 0 1 1.7.28 1.32 1.32 0 0 1 .77 1.27 1.47 1.47 0 0 1-1 1.39c0 .1.08.13.19.15a1.68 1.68 0 0 1 1.36 1.69c0 1.18-.87 2-2.7 2h-2.38a.21.21 0 0 1 0-.26h.18c.54-.09.56-.2.56-1.26Zm.83 1.34c0 .29 0 .31.53.29 1 0 1.59-.35 1.59-1.3a1.56 1.56 0 0 0-2-1.31c-.1 0-.14.08-.14.27Zm0 2.36a1.91 1.91 0 0 0 .22 1.1 1 1 0 0 0 .8.28c.9 0 1.59-.4 1.59-1.41 0-.81-.41-1.74-2-1.74-.55 0-.59.06-.59.27ZM124 58.69c0-.4 0-.45-.27-.63l-.1-.06a.14.14 0 0 1 0-.18 8.06 8.06 0 0 0 1-.5s.08 0 .08.07v.7a2.07 2.07 0 0 1 1.11-.61.42.42 0 0 1 .46.41.45.45 0 0 1-.44.46.38.38 0 0 1-.22-.07.82.82 0 0 0-.44-.16.45.45 0 0 0-.37.2 1.59 1.59 0 0 0-.13.78v1.38c0 .73 0 .85.4.88h.37a.19.19 0 0 1 0 .26h-2.06a.19.19 0 0 1 0-.26h.19c.38-.06.39-.15.39-.88ZM127.38 58.69c0-.4 0-.45-.27-.63L127 58a.14.14 0 0 1 0-.18 7 7 0 0 0 1-.5c.05 0 .1 0 .11.06 0 .36-.05.84-.05 1.26v1.82c0 .73 0 .83.39.88h.21a.19.19 0 0 1 0 .26h-2a.19.19 0 0 1 0-.26h.21c.37-.05.38-.15.38-.88Zm.85-2.89a.53.53 0 0 1-1.06 0 .53.53 0 0 1 .55-.55.52.52 0 0 1 .51.55ZM130.83 58c-.17 0-.18 0-.18.24v1.9c0 .59.07 1.12.74 1.12a.76.76 0 0 0 .27 0c.09 0 .23-.14.26-.14s.12.11.1.17a1.4 1.4 0 0 1-1.07.47c-.87 0-1-.49-1-1.09v-2.35c0-.27 0-.29-.21-.29h-.29a.17.17 0 0 1 0-.21 1.93 1.93 0 0 0 .65-.32 2.81 2.81 0 0 0 .43-.59.16.16 0 0 1 .21.05v.45c0 .18 0 .19.18.19H132a.33.33 0 0 1 0 .43ZM133.12 58.69c0-.4 0-.45-.27-.63l-.09-.06a.14.14 0 0 1 0-.18 7 7 0 0 0 1-.5.09.09 0 0 1 .1.06v3.08c0 .73 0 .83.39.88h.21a.19.19 0 0 1 0 .26h-1.95a.19.19 0 0 1 0-.26h.22c.37-.05.38-.15.38-.88Zm.88-2.89a.49.49 0 0 1-.53.53.5.5 0 0 1-.52-.51.53.53 0 0 1 .55-.55.51.51 0 0 1 .5.53ZM137.52 57.65a2.35 2.35 0 0 1 .16.82.17.17 0 0 1-.24 0 1 1 0 0 0-.89-.74.59.59 0 0 0-.65.61c0 .42.43.64.78.85.54.3 1 .64 1 1.36s-.71 1.16-1.46 1.16a1.69 1.69 0 0 1-1.08-.3 3.1 3.1 0 0 1-.12-1 .17.17 0 0 1 .23 0c.17.56.5 1.05 1.08 1.05a.62.62 0 0 0 .67-.65c0-.47-.4-.72-.78-.94-.58-.33-1-.68-1-1.24 0-.74.61-1.16 1.38-1.16a1.65 1.65 0 0 1 .92.18ZM138.92 55.88c0-.6 0-.66-.31-.84l-.1-.06a.13.13 0 0 1 0-.2 7.79 7.79 0 0 0 1.09-.43.11.11 0 0 1 .1.06V57.99a2.34 2.34 0 0 1 1.37-.53 1.19 1.19 0 0 1 1.31 1.31v1.69c0 .73 0 .84.38.88h.28a.19.19 0 0 1 0 .26h-1.94a.19.19 0 0 1 0-.26h.2c.38-.06.39-.15.39-.88V59c0-.65-.32-1.08-1-1.08a1.25 1.25 0 0 0-.79.27c-.18.15-.21.21-.21.56v1.7c0 .73 0 .83.39.88h.21a.19.19 0 0 1 0 .26h-1.95a.19.19 0 0 1 0-.26h.26c.37 0 .38-.15.38-.88ZM147.53 55.61a4.34 4.34 0 0 1 2.73-.86 8 8 0 0 1 1.8.24.75.75 0 0 0 .28 0c0 .23.06.87.14 1.49a.21.21 0 0 1-.27 0 1.84 1.84 0 0 0-2.08-1.48 2.77 2.77 0 0 0-2.87 3.08 3 3 0 0 0 3 3.31 2.17 2.17 0 0 0 2.13-1.39.22.22 0 0 1 .27 0 3.94 3.94 0 0 1-.49 1.39 2.42 2.42 0 0 0-.36.1 6 6 0 0 1-1.6.23 4.41 4.41 0 0 1-2.52-.68 3.27 3.27 0 0 1-1.44-2.79 3.37 3.37 0 0 1 1.28-2.64ZM157.44 59.56a2.07 2.07 0 0 1-2.14 2.18 2 2 0 0 1-2.07-2.09 2.13 2.13 0 0 1 2.15-2.19 2 2 0 0 1 2.06 2.1Zm-2.18-1.79c-.67 0-1.16.64-1.16 1.75 0 .92.41 1.92 1.3 1.92s1.17-.94 1.17-1.72-.34-1.95-1.31-1.95ZM159.45 60.46c0 .73 0 .83.38.88h.25a.19.19 0 0 1 0 .26h-2a.19.19 0 0 1 0-.26h.23c.38-.05.39-.15.39-.88v-4.58c0-.6 0-.66-.31-.84l-.11-.06a.15.15 0 0 1 0-.2 7.4 7.4 0 0 0 1.1-.43.11.11 0 0 1 .1.06v1.26ZM161.93 60.11c0 .7.18 1.16.95 1.16a1.36 1.36 0 0 0 .82-.3.71.71 0 0 0 .2-.59v-1.66c0-.66-.07-.68-.38-.8l-.13-.05a.14.14 0 0 1 0-.22 4.41 4.41 0 0 0 1.19-.19s.08 0 .09.07v2.59c0 .8 0 1.1.31 1.1a1.9 1.9 0 0 0 .4 0c.06 0 .07.26 0 .3a5.34 5.34 0 0 0-1.33.37.14.14 0 0 1-.12-.07v-.42c0-.09 0-.14-.09-.14a2.61 2.61 0 0 1-1.4.53c-.89 0-1.23-.45-1.23-1.27v-1.74c0-.64 0-.73-.3-.86l-.12-.05a.15.15 0 0 1 0-.22 3.91 3.91 0 0 0 1.08-.19c.06 0 .09 0 .1.07a8 8 0 0 0 0 .89ZM171.89 59c0-.69-.31-1-.95-1a1.12 1.12 0 0 0-.84.35.82.82 0 0 0-.15.61v1.55c0 .73 0 .83.39.88h.21a.19.19 0 0 1 0 .26h-1.88a.19.19 0 0 1 0-.26h.19c.37-.06.38-.15.38-.88V59c0-.68-.3-1-.93-1a1.08 1.08 0 0 0-.85.36.82.82 0 0 0-.15.58v1.57c0 .73 0 .82.38.88h.18a.19.19 0 0 1 0 .26h-1.92a.19.19 0 0 1 0-.26h.24c.38-.05.39-.15.39-.88v-1.82c0-.4 0-.45-.28-.63l-.09-.06a.14.14 0 0 1 0-.18 5.58 5.58 0 0 0 1-.5.13.13 0 0 1 .12.07v.48a.1.1 0 0 0 .11.11 2.45 2.45 0 0 1 1.34-.52 1.17 1.17 0 0 1 1.08.6.31.31 0 0 0 .25-.08 2.58 2.58 0 0 1 1.38-.52 1.15 1.15 0 0 1 1.21 1.26v1.74c0 .73 0 .83.38.88h.25a.19.19 0 0 1 0 .26h-1.92a.19.19 0 0 1 0-.26h.18c.38-.06.39-.15.39-.88ZM174.27 55.88c0-.6 0-.66-.31-.84l-.1-.06a.13.13 0 0 1 0-.2 10.38 10.38 0 0 0 1.1-.43.11.11 0 0 1 .1.06v3.17c0 .18 0 .22.1.22a2.39 2.39 0 0 1 1.17-.34 1.9 1.9 0 0 1 1.93 2 2.22 2.22 0 0 1-2.33 2.29 2.94 2.94 0 0 1-.86-.13 2.13 2.13 0 0 0-.42-.13.31.31 0 0 0-.22.15.11.11 0 0 1-.1-.06v-.86Zm.75 4.34a1.41 1.41 0 0 0 .25.88 1 1 0 0 0 .77.34c1 0 1.33-.82 1.33-1.69 0-1-.54-1.85-1.54-1.85a1.35 1.35 0 0 0-.69.16c-.1.07-.12.18-.12.58ZM179.58 58.69c0-.4 0-.45-.27-.63l-.09-.06a.14.14 0 0 1 0-.18 7 7 0 0 0 1-.5.09.09 0 0 1 .1.06v3.08c0 .73 0 .83.39.88h.21a.19.19 0 0 1 0 .26h-1.95a.17.17 0 0 1 0-.26h.21c.37-.05.38-.15.38-.88Zm.84-2.89a.49.49 0 0 1-.53.53.5.5 0 0 1-.52-.51.53.53 0 0 1 .55-.55.51.51 0 0 1 .5.53ZM183.61 59.5c.15 0 .17-.14.17-.29v-.47c0-.38-.11-.88-.74-.88-.28 0-.63.14-.65.45s0 .29-.1.35a1.11 1.11 0 0 1-.58.19.13.13 0 0 1-.14-.14c0-.53 1.15-1.25 1.89-1.25s1.08.43 1.05 1.19l-.06 1.76c0 .47.07.88.46.88a.59.59 0 0 0 .26-.06s.1-.07.13-.07.07.06.07.13a1.05 1.05 0 0 1-.85.45.82.82 0 0 1-.66-.31c0-.07-.1-.15-.16-.15a1.51 1.51 0 0 0-.4.21 1.48 1.48 0 0 1-.73.25 1.08 1.08 0 0 1-.71-.23 1 1 0 0 1-.31-.71c0-.4.19-.63.84-.86Zm-.61 1.78a1.16 1.16 0 0 0 .62-.25c.12-.12.12-.26.13-.48v-.59c0-.12 0-.14-.1-.14a1.6 1.6 0 0 0-.42.11c-.6.2-.89.35-.89.75a.61.61 0 0 0 .66.6Z"/></g></g></svg>