<svg version="1.1" id="Layer_1" xmlns="http://www.w3.org/2000/svg" x="0" y="0" viewBox="0 0 2000 306.27" style="enable-background:new 0 0 2000 306.27" xml:space="preserve"><style>.st0{fill:#fff}</style><path class="st0" d="M1217.86 61.78c31.41-30.39 72.79-47.13 116.52-47.13s85.1 16.74 116.52 47.13c30.98 29.97 49.01 70.05 50.9 112.98-43.74 1.9-84.57 20.27-115.1 51.82-21.73 22.45-36.59 49.92-43.51 79.69h3.07c6.88-28.99 21.41-55.72 42.59-77.61 30.32-31.34 70.97-49.44 114.47-50.97 43.5 1.53 84.15 19.63 114.47 50.97 21.18 21.89 35.72 48.62 42.59 77.61h3.06c-6.93-29.77-21.79-57.23-43.51-79.68-30.53-31.56-71.36-49.93-115.1-51.82 1.89-42.93 19.92-83.01 50.9-112.98 31.41-30.39 72.79-47.13 116.52-47.13s85.1 16.74 116.52 47.13c29.19 28.24 46.89 65.45 50.42 105.57-.21 2.46-.38 4.93-.49 7.41-43.75 1.89-84.59 20.26-115.13 51.83-21.72 22.45-36.58 49.9-43.51 79.67h3.06c6.88-28.99 21.41-55.72 42.59-77.61 30.32-31.34 70.97-49.44 114.47-50.97l.5-.02.5.02c43.5 1.53 84.15 19.63 114.47 50.97 21.18 21.89 35.72 48.62 42.59 77.61h3.05c-.17-.71-.32-1.43-.49-2.15h-.8v-3.09c-7.4-27.76-21.77-53.32-42.21-74.45-30.54-31.56-71.38-49.93-115.13-51.83-.11-2.48-.27-4.95-.49-7.41 3.53-40.12 21.23-77.33 50.42-105.57 29.22-28.27 67.07-44.72 107.41-46.88V11.9c-41.11 2.16-79.69 18.91-109.47 47.72-26.78 25.91-44.06 59.25-49.84 95.48-5.78-36.23-23.05-69.57-49.84-95.48-31.97-30.94-74.09-47.97-118.59-47.97s-86.62 17.04-118.6 47.97c-27.59 26.7-45.1 61.27-50.34 98.78-5.23-37.51-22.74-72.08-50.34-98.78-31.97-30.94-74.09-47.97-118.59-47.97s-86.62 17.04-118.59 47.97c-24.76 23.96-41.4 54.27-48.34 87.35.57 2.71 1.07 5.43 1.5 8.17 5.75-35.43 22.69-68.01 48.9-93.36zM1048.85 226.58c-21.73 22.45-36.59 49.92-43.51 79.69h3.05c6.88-28.99 21.41-55.72 42.59-77.61 30.32-31.34 70.97-49.44 114.47-50.97l1.39-.05.05-1.39c.11-3.02.3-6.03.57-9.02-.36-4.04-.86-8.06-1.5-12.04-1.02 6.44-1.69 12.96-1.97 19.56-43.76 1.89-84.6 20.26-115.14 51.83z"/><path class="st0" d="M105.46 61.78c30.98 29.97 49.01 70.05 50.9 112.98-43.74 1.9-84.57 20.27-115.1 51.82C21.66 246.84 7.65 271.17 0 297.6v6.52h-1.75c-.18.71-.33 1.43-.49 2.15H.82c6.88-28.99 21.41-55.72 42.59-77.61 30.32-31.34 70.97-49.44 114.47-50.97 43.5 1.53 84.15 19.63 114.47 50.97 21.18 21.89 35.72 48.62 42.59 77.61H318c-6.93-29.77-21.79-57.23-43.51-79.68-30.53-31.56-71.36-49.93-115.1-51.82 1.89-42.93 19.92-83.01 50.9-112.98 31.41-30.39 72.79-47.13 116.52-47.13s85.1 16.74 116.52 47.13c29.19 28.24 46.89 65.45 50.42 105.57-.21 2.46-.38 4.93-.49 7.41-43.75 1.89-84.59 20.26-115.13 51.83-21.72 22.45-36.58 49.9-43.51 79.67h3.06c6.88-28.99 21.41-55.72 42.59-77.61 30.32-31.34 70.97-49.44 114.47-50.97l.5-.02.5.02c43.5 1.53 84.15 19.63 114.47 50.97 21.18 21.89 35.72 48.62 42.59 77.61h3.07c-6.93-29.77-21.79-57.24-43.51-79.69-30.54-31.56-71.38-49.93-115.13-51.83-.11-2.48-.27-4.95-.49-7.41 3.53-40.12 21.23-77.33 50.42-105.57 31.41-30.39 72.79-47.13 116.52-47.13 43.72 0 85.1 16.74 116.52 47.13 29.19 28.24 46.89 65.45 50.42 105.57-.21 2.46-.38 4.93-.49 7.41-43.75 1.89-84.59 20.26-115.13 51.83-21.73 22.45-36.59 49.92-43.51 79.69h3.06c6.88-28.99 21.41-55.72 42.59-77.61 30.32-31.34 70.97-49.44 114.47-50.97l.5-.02.5.02c43.5 1.53 84.15 19.63 114.47 50.97 21.18 21.89 35.72 48.62 42.59 77.61h3.06c-6.93-29.78-21.79-57.24-43.51-79.7-30.54-31.56-71.38-49.93-115.13-51.83-.11-2.48-.27-4.95-.49-7.41 3.53-40.12 21.23-77.33 50.42-105.57 31.41-30.39 72.79-47.13 116.52-47.13s85.1 16.74 116.52 47.13c26.23 25.37 43.17 57.98 48.9 93.43.44-2.76.94-5.5 1.51-8.23-6.93-33.08-23.57-63.38-48.34-87.35-31.97-30.94-74.09-47.97-118.59-47.97s-86.63 17.06-118.6 47.99c-26.78 25.91-44.06 59.25-49.84 95.48-5.78-36.23-23.05-69.57-49.84-95.48-31.97-30.94-74.09-47.97-118.59-47.97S577.05 28.7 545.08 59.63c-26.78 25.91-44.06 59.25-49.84 95.48-5.78-36.23-23.05-69.57-49.84-95.48-31.98-30.93-74.09-47.97-118.6-47.97-44.5 0-86.62 17.04-118.6 47.97-27.59 26.7-45.1 61.27-50.34 98.78-5.23-37.51-22.74-72.08-50.34-98.78C78.22 31.27 40.39 14.6 0 12.02v3c39.61 2.58 76.7 18.95 105.46 46.76zM1168.07 177.62l1.39.05c43.5 1.53 84.15 19.63 114.47 50.97 21.18 21.89 35.72 48.63 42.6 77.63h3.07c-6.93-29.77-21.79-57.23-43.52-79.69-30.54-31.56-71.38-49.93-115.13-51.83-.29-6.61-.95-13.15-1.98-19.61-.65 4-1.15 8.03-1.51 12.09.26 2.99.46 5.99.56 9l.05 1.39z"/></svg>